<svg xmlns="http://www.w3.org/2000/svg" viewBox="0 0 1600 800" role="img" aria-label="White SUV, side view facing right">
  <defs>
    <linearGradient id="bodyE" x1="0" y1="0" x2="0" y2="1">
      <stop offset="0" stop-color="#FFFFFF"/>
      <stop offset="0.5" stop-color="#F4F5F9"/>
      <stop offset="1" stop-color="#DBDEE7"/>
    </linearGradient>
    <linearGradient id="glassE" x1="0" y1="0" x2="0" y2="1">
      <stop offset="0" stop-color="#4C4C59"/>
      <stop offset="1" stop-color="#26262E"/>
    </linearGradient>
  </defs>
  <rect width="1600" height="800" fill="#FFFFFF"/>
  <ellipse cx="800" cy="700" rx="520" ry="28" fill="#2B2B33" opacity="0.12"/>

  <!-- taller, more upright body -->
  <path d="M470 596 L438 540 Q470 494 534 490 L642 480 L724 356 L1000 356 L1078 462 L1212 474 Q1274 482 1278 540 L1270 598 Q1262 636 1214 636 L504 636 Q468 636 470 596 Z"
        fill="url(#bodyE)"/>
  <path d="M664 476 L732 376 L992 376 L1064 476 Z" fill="url(#glassE)"/>
  <rect x="864" y="376" width="12" height="82" fill="#FFFFFF"/>
  <rect x="440" y="482" width="846" height="9" rx="4" fill="#FFC800"/>
  <rect x="446" y="500" width="834" height="6" fill="#C9CCD6" opacity="0.85"/>
  <rect x="440" y="490" width="34" height="26" rx="9" fill="#E24B3F"/>
  <rect x="1240" y="492" width="36" height="26" rx="9" fill="#FFC800"/>
  <rect x="820" y="514" width="34" height="9" rx="4" fill="#B9BDC9"/>
  <rect x="1052" y="514" width="34" height="9" rx="4" fill="#B9BDC9"/>
  <circle cx="576" cy="624" r="82" fill="#2B2B33"/>
  <circle cx="576" cy="624" r="32" fill="#DADAE0"/>
  <circle cx="1160" cy="624" r="82" fill="#2B2B33"/>
  <circle cx="1160" cy="624" r="32" fill="#DADAE0"/>
</svg>
